# AST/ASF file generated using VICON BodyLanguage
# -----------------------------------------------
:version 1.10
:name VICON
:units
  mass 1.0
  length 0.45
  angle deg
:documentation
   .ast/.asf automatically generated from VICON data using
   VICON BodyBuilder and BodyLanguage model FoxedUp or BRILLIANT.MOD
:root
   order TX TY TZ RX RY RZ
   axis XYZ
   position 0 0 0  
   orientation 0 0 0 
:bonedata
  begin
     id 1 
     name lhipjoint
     direction 0.558404 -0.748506 0.357664 
     length 2.4234 
     axis 0 0 0  XYZ
  end
  begin
     id 2 
     name lfemur
     direction 0.34202 -0.939693 0  
     length 7.14567  
     axis 0 0 20  XYZ
    dof rx ry rz
    limits (-160.0 20.0)
           (-70.0 70.0)
           (-60.0 70.0)
  end
  begin
     id 3 
     name ltibia
     direction 0.34202 -0.939693 0   
     length 8.13956   
     axis 0 0 20   XYZ
    dof rx
    limits (-10.0 170.0)
  end
  begin
     id 4 
     name lfoot
     direction 0.0791314 -0.217412 0.972867   
     length 2.00134   
     axis -90 7.62852e-016 20   XYZ
    dof rx rz
    limits (-45.0 90.0)
           (-70.0 20.0)
  end
  begin
     id 5 
     name ltoes
     direction 1.53547e-011 -4.21922e-011 1   
     length 1.00735   
     axis -90 7.62852e-016 20   XYZ
    dof rx
    limits (-90.0 20.0)
  end
  begin
     id 6 
     name rhipjoint
     direction -0.496392 -0.78327 0.374276   
     length 2.31584  
     axis 0 0 0  XYZ 
  end
  begin
     id 7 
     name rfemur
     direction -0.34202 -0.939693 0   
     length 7.47417   
     axis 0 0 -20   XYZ
    dof rx ry rz
    limits (-160.0 20.0)
           (-70.0 70.0)
           (-70.0 60.0)
  end
  begin
     id 8 
     name rtibia
     direction -0.34202 -0.939693 0   
     length 7.69071   
     axis 0 0 -20   XYZ
    dof rx
    limits (-10.0 170.0)
 end
 begin
     id 9 
     name rfoot
     direction -0.103069 -0.28318 0.953512   
     length 2.16135  
     axis -90 -7.62852e-016 -20   XYZ
    dof rx rz
    limits (-45.0 90.0)
           (-20.0 70.0)
  end
  begin
     id 10 
     name rtoes
     direction -1.53581e-011 -4.21904e-011 1   
     length 1.07867   
     axis -90 -7.62852e-016 -20   XYZ
    dof rx
    limits (-90.0 20.0)
  end
  begin
     id 11 
     name lowerback
     direction -0.0258961 0.994776 -0.0987407   
     length 2.19412   
     axis 0 0 0   XYZ
    dof rx ry rz
    limits (-20.0 45.0)
           (-30.0 30.0)
           (-30.0 30.0)
  end
  begin
     id 12 
     name upperback
     direction 0.0402454 0.999185 0.00320666   
     length 2.18445   
     axis 0 0 0   XYZ
    dof rx ry rz
    limits (-20.0 45.0)
           (-30.0 30.0)
           (-30.0 30.0)
  end
  begin
     id 13 
     name thorax
     direction 0.0519376 0.997415 0.0496558   
     length 2.21487   
     axis 0 0 0   XYZ
    dof rx ry rz
    limits (-20.0 45.0)
           (-30.0 30.0)
           (-30.0 30.0)
  end
  begin
     id 14 
     name lowerneck
     direction -0.0921276 0.983211 0.157506   
     length 1.61201   
     axis 0 0 0   XYZ
    dof rx ry rz
    limits (-20.0 45.0)
           (-30.0 30.0)
           (-30.0 30.0)
  end
  begin
     id 15 
     name upperneck
     direction 0.0820814 0.98162 -0.172292   
     length 1.65275   
     axis 0 0 0   XYZ
    dof rx ry rz
    limits (-20.0 45.0)
           (-30.0 30.0)
           (-30.0 30.0)
  end
  begin
     id 16
     name head
     direction 0.0336554 0.996413 -0.0776455  
     length 1.66415  
     axis 0 0 0   XYZ
    dof rx ry rz
    limits (-20.0 45.0)
           (-30.0 30.0)
           (-30.0 30.0)
  end
  begin
     id 17 
     name lclavicle
     direction 0.94696 0.284418 -0.149576  
     length 3.41447  
     axis 0 0 0   XYZ
    dof ry rz
    limits (-20.0 10.0)
           (0.0 20.0)
  end
  begin
     id 18 
     name lhumerus
     direction 1 -0.000130264 -9.81312e-005   
     length 5.19964   
     axis 180 -30 -90   XYZ
    dof rx ry rz
    limits (-60.0 90.0)
           (-90.0 90.0)
           (-90.0 90.0)
  end
  begin
     id 19
     name lradius
     direction 1 -4.48961e-011 1.43854e-026   
     length 3.32189   
     axis 180 -30 -90   XYZ
    dof rx
    limits (-10.0 170.0)
  end
  begin
     id 20
     name lwrist
     direction 1 -4.48958e-011 3.1502e-026   
     length 1.66095   
     axis -1.97692e-014 90 90   XYZ
    dof ry
    limits (-180.0 0.0)
 end
  begin
     id 21 
     name lhand
     direction 1 -4.48927e-011 6.3004e-026   
     length 0.645616   
     axis -4.02019e-014 90 90   XYZ
    dof rx rz
    limits (-90.0 90.0)
           (-45.0 45.0)
  end
  begin
     id 22 
     name lfingers
     direction 1 -4.4904e-011 1.26008e-025   
     length 0.520512   
     axis -8.04039e-014 90 90   XYZ
    dof rx
    limits (0.0 90.0)
  end
  begin
     id 23
     name lthumb
     direction 0.707107 -6.34947e-011 0.707107   
     length 0.747354   
     axis -90 45 2.85299e-015   XYZ
    dof rx rz
    limits (-45.0 45.0)
           (-45.0 45.0)
  end
  begin
     id 24 
     name rclavicle
     direction -0.909391 0.383475 -0.161107   
     length 3.25176  
     axis 0 0 0   XYZ 
    dof ry rz
    limits (-10.0 20.0)
           (-20.0 0.0)
  end
  begin
     id 25 
     name rhumerus
     direction -1 -4.48965e-011 -1.81384e-027  
     length 5.6595   
     axis 180 30 90   XYZ
    dof rx ry rz
    limits (-90.0 60.0)
           (-90.0 90.0)
           (-90.0 90.0)
  end
  begin
     id 26 
     name rradius
     direction -1 -4.48996e-011 -8.09397e-027   
     length 3.37604   
     axis 180 30 90   XYZ
    dof rx
    limits (-10.0 170.0)
  end
  begin
     id 27 
     name rwrist
     direction -1 -4.48927e-011 -1.56669e-026   
     length 1.68802   
     axis 1.21142e-014 -90 -90   XYZ
    dof ry
    limits (-180.0 0.0)
  end
  begin
     id 28
     name rhand
     direction -1 -4.48912e-011 -3.13339e-026   
     length 0.824702   
     axis 1.99937e-014 -90 -90   XYZ
    dof rx rz
    limits (-90.0 90.0)
           (-45.0 45.0)
  end
  begin
     id 29
     name rfingers
     direction -1 -4.49011e-011 -6.26677e-026   
     length 0.664896   
     axis 3.99874e-014 -90 -90   XYZ
    dof rx
    limits (0.0 90.0)
  end
  begin
     id 30
     name rthumb
     direction -0.707107 -6.34931e-011 0.707107   
     length 0.954662   
     axis -90 -45 -2.85299e-015   XYZ
    dof rx rz
    limits (-45.0 45.0)
           (-45.0 45.0)
  end
:hierarchy
  begin
    root lhipjoint rhipjoint lowerback
    lhipjoint lfemur
    lfemur ltibia
    ltibia lfoot
    lfoot ltoes
    rhipjoint rfemur
    rfemur rtibia
    rtibia rfoot
    rfoot rtoes
    lowerback upperback
    upperback thorax
    thorax lowerneck lclavicle rclavicle
    lowerneck upperneck
    upperneck head
    lclavicle lhumerus
    lhumerus lradius
    lradius lwrist
    lwrist lhand lthumb
    lhand lfingers
    rclavicle rhumerus
    rhumerus rradius
    rradius rwrist
    rwrist rhand rthumb
    rhand rfingers
  end

#!OML:ASF F:\VICON\USERDATA\INSTALL\rory3\rory3.ASF
:FULLY-SPECIFIED
:DEGREES
251
root 9.51522 17.74 -14.2068 4.67112 -42.8741 -5.54056
lowerback 2.48791 -3.42903 -3.19944
upperback -1.8555 -4.61513 4.74109
thorax -2.66901 -2.21595 6.9333
lowerneck -9.27886 -7.87436 -16.3505
upperneck 21.8499 -11.5104 13.3656
head 10.2182 -5.54669 6.03026
rclavicle 4.48508e-014 -2.38542e-015
rhumerus -39.9971 -25.1979 -54.5517
rradius 33.0713
rwrist -14.4717
rhand -12.0673 15.9339
rfingers 7.12502
rthumb 13.9922 -13.5752
lclavicle 4.48508e-014 -2.38542e-015
lhumerus -23.9871 7.45685 77.6793
lradius 32.6303
lwrist -12.9183
lhand -1.61089 28.2335
lfingers 7.12502
lthumb 24.0465 56.747
rfemur -16.4016 10.2231 15.8218
rtibia 36.1181
rfoot -17.5079 -4.20764
rtoes 7.46591
lfemur -7.63104 0.662232 -17.7894
ltibia 34.6846
lfoot -25.8141 15.7986
ltoes 5.14705
252
root 9.4982 17.7298 -14.1648 3.80139 -43.0246 -4.87256
lowerback 2.335 -3.2357 -3.44836
upperback -1.65998 -4.36744 4.51308
thorax -2.41418 -2.09906 6.80569
lowerneck -9.00058 -7.96055 -16.5239
upperneck 21.732 -11.6668 13.4966
head 10.1702 -5.63208 6.08955
rclavicle -2.91716e-014 -2.78299e-014
rhumerus -40.0743 -27.6439 -53.2665
rradius 32.5099
rwrist -11.7848
rhand -11.6794 16.4112
rfingers 7.12502
rthumb 14.366 -13.0717
lclavicle -2.91716e-014 -2.78299e-014
lhumerus -24.2431 7.91544 77.5836
lradius 32.5793
lwrist -13.3323
lhand -1.51828 28.2139
lfingers 7.12502
lthumb 24.1354 56.7157
rfemur -15.7733 9.80976 15.2663
rtibia 36.1209
rfoot -17.6601 -3.72516
rtoes 6.58817
lfemur -6.88723 0.802401 -18.4384
ltibia 34.5923
lfoot -25.9729 15.9824
ltoes 4.61151
253
root 9.48567 17.7263 -14.157 3.68349 -43.0857 -5.03932
lowerback 2.28661 -3.00421 -3.3027
upperback -1.51279 -4.05343 4.48813
thorax -2.29007 -1.95084 6.67839
lowerneck -8.74529 -8.09435 -16.647
upperneck 21.5473 -11.8812 13.6047
head 10.109 -5.74006 6.12029
rclavicle -4.17448e-014 -1.43125e-014
rhumerus -39.8143 -27.1484 -53.6249
rradius 32.6922
rwrist -12.116
rhand -12.2294 16.3768
rfingers 7.12502
rthumb 13.8359 -13.143
lclavicle -4.17448e-014 -1.43125e-014
lhumerus -24.2462 7.98821 77.5032
lradius 32.4007
lwrist -13.3567
lhand -1.14842 28.4932
lfingers 7.12502
lthumb 24.4899 56.9475
rfemur -15.5039 10.072 15.4455
rtibia 36.182
rfoot -17.8106 -3.77036
rtoes 7.61315
lfemur -6.52021 0.579801 -18.3715
ltibia 34.4775
lfoot -26.0112 16.3683
ltoes 3.84863
254
root 9.4787 17.7243 -14.1598 2.65567 -42.5882 -3.42441
lowerback 2.06651 -2.97013 -4.47263
upperback -1.47359 -4.04423 4.07644
thorax -2.07824 -1.93476 6.89359
lowerneck -8.65258 -8.26301 -16.5686
upperneck 21.3796 -12.1557 13.7066
head 10.0819 -5.85355 6.10103
rclavicle 1.50555e-013 -3.73715e-014
rhumerus -39.6817 -27.2545 -53.872
rradius 32.9539
rwrist -11.9665
rhand -12.3208 16.4051
rfingers 7.12502
rthumb 13.7479 -13.1207
lclavicle 1.50555e-013 -3.73715e-014
lhumerus -24.0784 7.89953 77.3628
lradius 32.1259
lwrist -13.219
lhand -0.828817 28.7025
lfingers 7.12502
lthumb 24.7963 57.1149
rfemur -15.5105 9.46952 14.0809
rtibia 36.3108
rfoot -17.9958 -3.61306
rtoes 7.44044
lfemur -6.53868 0.38535 -19.6707
ltibia 34.3161
lfoot -25.7991 16.3063
ltoes 2.9425
255
root 9.47757 17.7312 -14.1975 2.9916 -41.5263 -3.60992
lowerback 2.23388 -3.09619 -4.54835
upperback -1.5853 -4.21962 4.10671
thorax -2.25455 -2.01241 6.98864
lowerneck -8.97439 -8.43973 -16.1964
upperneck 21.5689 -12.3708 13.4058
head 10.2026 -5.93486 5.88642
rclavicle 5.70264e-015 -2.3059e-014
rhumerus -39.5219 -26.7211 -54.4055
rradius 33.4416
rwrist -12.6204
rhand -12.296 16.1596
rfingers 7.12502
rthumb 13.7717 -13.3646
lclavicle 5.70264e-015 -2.3059e-014
lhumerus -24.0201 8.10715 77.1752
lradius 31.9338
lwrist -13.5748
lhand -0.845883 28.667
lfingers 7.12502
lthumb 24.7799 57.0816
rfemur -15.6073 9.10382 14.4138
rtibia 36.3558
rfoot -18.0074 -4.33959
rtoes 6.66507
lfemur -7.04833 0.95623 -19.0416
ltibia 34.3421
lfoot -25.1733 15.0414
ltoes 1.66971
256
root 9.47592 17.7333 -14.2097 3.30811 -40.8781 -3.98845
lowerback 2.32424 -3.0909 -4.28813
upperback -1.6433 -4.20484 4.17774
thorax -2.38054 -2.00341 6.92406
lowerneck -9.64315 -8.63328 -15.8003
upperneck 22.128 -12.5315 12.8046
head 10.4909 -6.00232 5.56008
rclavicle 7.3774e-014 2.10712e-014
rhumerus -39.3753 -26.5548 -54.5217
rradius 33.6387
rwrist -12.8191
rhand -12.1042 16.2637
rfingers 7.12502
rthumb 13.9566 -13.2479
lclavicle 7.3774e-014 2.10712e-014
lhumerus -24.099 8.45389 77.0498
lradius 31.8312
lwrist -13.901
lhand -0.707199 28.9123
lfingers 7.12502
lthumb 24.9128 57.3087
rfemur -15.5927 8.86627 14.8294
rtibia 36.3914
rfoot -18.1081 -4.75497
rtoes 7.19644
lfemur -7.26482 1.01876 -18.5179
ltibia 34.3424
lfoot -24.9613 14.3431
ltoes 2.11957
257
root 9.47272 17.7313 -14.2023 3.2385 -40.5007 -4.0054
lowerback 2.33758 -3.03219 -4.14507
upperback -1.63747 -4.12169 4.1236
thorax -2.40787 -1.96331 6.78377
lowerneck -9.34926 -8.6073 -15.6522
upperneck 22.0035 -12.5062 12.6397
head 10.3616 -6.00534 5.48586
rclavicle -6.21202e-017 -3.73715e-014
rhumerus -39.1717 -26.595 -54.6128
rradius 33.6332
rwrist -12.7978
rhand -12.1337 16.549
rfingers 7.12502
rthumb 13.9282 -12.9645
lclavicle -6.21202e-017 -3.73715e-014
lhumerus -24.2014 8.58489 76.9111
lradius 31.652
lwrist -13.6477
lhand -0.663502 29.2485
lfingers 7.12502
lthumb 24.9547 57.6391
rfemur -15.3696 8.65611 14.8766
rtibia 36.3302
rfoot -18.1618 -4.92543
rtoes 7.55611
lfemur -7.23826 0.791743 -18.4785
ltibia 34.4342
lfoot -25.0221 14.1097
ltoes 2.77837
258
root 9.46749 17.7314 -14.1936 2.93622 -40.0241 -3.67656
lowerback 2.26084 -2.99526 -4.19763
upperback -1.58109 -4.07412 3.91374
thorax -2.32433 -1.94279 6.5828
lowerneck -9.0603 -8.76057 -15.8708
upperneck 21.7325 -12.8176 13.1019
head 10.3103 -6.13581 5.64827
rclavicle 7.35752e-014 -1.19271e-015
rhumerus -38.9379 -26.3351 -55.1045
rradius 33.8231
rwrist -13.331
rhand -12.2814 16.5344
rfingers 7.12502
rthumb 13.7858 -12.9888
lclavicle 7.35752e-014 -1.19271e-015
lhumerus -24.2281 8.86992 76.6336
lradius 31.4226
lwrist -13.5213
lhand -0.755986 29.263
lfingers 7.12502
lthumb 24.8661 57.6658
rfemur -15.1067 8.26859 14.6249
rtibia 36.2844
rfoot -18.1468 -4.99039
rtoes 6.90391
lfemur -7.15443 0.387948 -18.7622
ltibia 34.4667
lfoot -25.0416 14.2085
ltoes 2.18929
259
root 9.46263 17.7348 -14.1961 2.9912 -39.486 -3.73522
lowerback 2.24875 -2.94239 -4.12712
upperback -1.59294 -4.00064 3.87686
thorax -2.34747 -1.90603 6.50171
lowerneck -8.56353 -8.94739 -16.4617
upperneck 21.2076 -13.1979 13.9123
head 10.1983 -6.30682 5.9925
rclavicle 7.17737e-014 -4.13472e-014
rhumerus -38.7781 -26.2195 -55.343
rradius 34.0375
rwrist -13.575
rhand -12.1897 16.5253
rfingers 7.12502
rthumb 13.8742 -12.9919
lclavicle 7.17737e-014 -4.13472e-014
lhumerus -24.4953 10.0274 76.3478
lradius 31.5521
lwrist -14.1911
lhand -0.488947 29.1565
lfingers 7.12502
lthumb 25.122 57.5237
rfemur -15.0301 8.02112 14.7353
rtibia 36.2856
rfoot -18.1331 -5.21558
rtoes 6.46966
lfemur -7.23948 0.0314763 -18.6575
ltibia 34.453
lfoot -25.0151 14.1226
ltoes 2.11876
260
root 9.45666 17.7351 -14.2009 3.0511 -39.2437 -3.73545
lowerback 2.29733 -2.82526 -4.29807
upperback -1.67 -3.84989 3.94961
thorax -2.46074 -1.82143 6.6791
lowerneck -8.21582 -9.0387 -16.8251
upperneck 20.8418 -13.3658 14.2884
head 10.0884 -6.39444 6.16975
rclavicle -6.72141e-015 -2.38542e-015
rhumerus -38.5867 -26.0754 -55.3774
rradius 34.1496
rwrist -13.3534
rhand -12.2014 16.4965
rfingers 7.12502
rthumb 13.863 -13.0215
lclavicle -6.72141e-015 -2.38542e-015
lhumerus -24.931 11.0425 76.1949
lradius 31.8317
lwrist -14.5958
lhand -0.758451 29.0545
lfingers 7.12502
lthumb 24.8637 57.4576
rfemur -15.0788 8.05243 14.7688
rtibia 36.3223
rfoot -18.1644 -5.4189
rtoes 6.42937
lfemur -7.33986 -0.0577381 -18.6114
ltibia 34.4292
lfoot -25.0364 13.8348
ltoes 3.03548
261
root 9.45025 17.7348 -14.2007 2.89185 -39.0799 -3.343
lowerback 2.18506 -2.70683 -4.68871
upperback -1.71332 -3.70176 3.91381
thorax -2.4432 -1.73949 6.85569
lowerneck -8.0697 -9.12123 -16.9056
upperneck 20.6749 -13.463 14.269
head 10.024 -6.45181 6.1612
rclavicle -5.26904e-014 -2.26615e-014
rhumerus -38.339 -26.3733 -55.2722
rradius 34.1165
rwrist -12.6675
rhand -12.1558 16.4848
rfingers 7.12502
rthumb 13.9068 -13.0301
lclavicle -5.26904e-014 -2.26615e-014
lhumerus -25.0686 11.194 76.1594
lradius 31.6422
lwrist -14.3403
lhand -1.4852 29.2016
lfingers 7.12502
lthumb 24.1671 57.6992
rfemur -15.1339 7.98597 14.4208
rtibia 36.3562
rfoot -18.2252 -5.45682
rtoes 6.49368
lfemur -7.42793 -0.125391 -18.9417
ltibia 34.4285
lfoot -25.0875 13.7117
ltoes 3.34556
